<mxfile host="app.diagrams.net" modified="2023-04-27T11:20:27.085Z" agent="Mozilla/5.0 (Windows NT 10.0; Win64; x64) AppleWebKit/537.36 (KHTML, like Gecko) Chrome/112.0.0.0 Safari/537.36 Edg/112.0.1722.58" etag="Jt1YN73tAjjfabFDIwKh" version="21.1.8" type="github">
  <diagram name="Page-1" id="2YBvvXClWsGukQMizWep">
    <mxGraphModel dx="1195" dy="630" grid="1" gridSize="10" guides="1" tooltips="1" connect="1" arrows="1" fold="1" page="1" pageScale="1" pageWidth="850" pageHeight="1100" math="0" shadow="0">
      <root>
        <mxCell id="0" />
        <mxCell id="1" parent="0" />
        <mxCell id="aM9ryv3xv72pqoxQDRHE-1" value=":Personale" style="shape=umlLifeline;perimeter=lifelinePerimeter;whiteSpace=wrap;html=1;container=0;dropTarget=0;collapsible=0;recursiveResize=0;outlineConnect=0;portConstraint=eastwest;newEdgeStyle={&quot;edgeStyle&quot;:&quot;elbowEdgeStyle&quot;,&quot;elbow&quot;:&quot;vertical&quot;,&quot;curved&quot;:0,&quot;rounded&quot;:0};fillColor=#dae8fc;strokeColor=#6c8ebf;" parent="1" vertex="1">
          <mxGeometry x="22" y="146" width="100" height="304" as="geometry" />
        </mxCell>
        <mxCell id="aM9ryv3xv72pqoxQDRHE-2" value="" style="html=1;points=[];perimeter=orthogonalPerimeter;outlineConnect=0;targetShapes=umlLifeline;portConstraint=eastwest;newEdgeStyle={&quot;edgeStyle&quot;:&quot;elbowEdgeStyle&quot;,&quot;elbow&quot;:&quot;vertical&quot;,&quot;curved&quot;:0,&quot;rounded&quot;:0};fillColor=#f8cecc;strokeColor=#b85450;" parent="aM9ryv3xv72pqoxQDRHE-1" vertex="1">
          <mxGeometry x="45" y="70" width="10" height="210" as="geometry" />
        </mxCell>
        <mxCell id="aM9ryv3xv72pqoxQDRHE-5" value=":System" style="shape=umlLifeline;perimeter=lifelinePerimeter;whiteSpace=wrap;html=1;container=0;dropTarget=0;collapsible=0;recursiveResize=0;outlineConnect=0;portConstraint=eastwest;newEdgeStyle={&quot;edgeStyle&quot;:&quot;elbowEdgeStyle&quot;,&quot;elbow&quot;:&quot;vertical&quot;,&quot;curved&quot;:0,&quot;rounded&quot;:0};fillColor=#dae8fc;strokeColor=#6c8ebf;" parent="1" vertex="1">
          <mxGeometry x="202" y="146" width="100" height="304" as="geometry" />
        </mxCell>
        <mxCell id="aM9ryv3xv72pqoxQDRHE-6" value="" style="html=1;points=[];perimeter=orthogonalPerimeter;outlineConnect=0;targetShapes=umlLifeline;portConstraint=eastwest;newEdgeStyle={&quot;edgeStyle&quot;:&quot;elbowEdgeStyle&quot;,&quot;elbow&quot;:&quot;vertical&quot;,&quot;curved&quot;:0,&quot;rounded&quot;:0};fillColor=#d5e8d4;strokeColor=#82b366;" parent="aM9ryv3xv72pqoxQDRHE-5" vertex="1">
          <mxGeometry x="45" y="80" width="10" height="200" as="geometry" />
        </mxCell>
        <mxCell id="aM9ryv3xv72pqoxQDRHE-7" value="Vis(RFID-tag)" style="html=1;verticalAlign=bottom;endArrow=block;edgeStyle=elbowEdgeStyle;elbow=vertical;curved=0;rounded=0;" parent="1" source="aM9ryv3xv72pqoxQDRHE-2" target="aM9ryv3xv72pqoxQDRHE-6" edge="1">
          <mxGeometry relative="1" as="geometry">
            <mxPoint x="177" y="236" as="sourcePoint" />
            <Array as="points">
              <mxPoint x="162" y="226" />
            </Array>
          </mxGeometry>
        </mxCell>
        <mxCell id="aM9ryv3xv72pqoxQDRHE-9" value="Vis(våben)" style="html=1;verticalAlign=bottom;endArrow=block;edgeStyle=elbowEdgeStyle;elbow=vertical;curved=0;rounded=0;" parent="1" source="aM9ryv3xv72pqoxQDRHE-6" target="aM9ryv3xv72pqoxQDRHE-2" edge="1">
          <mxGeometry relative="1" as="geometry">
            <mxPoint x="157" y="266" as="sourcePoint" />
            <Array as="points">
              <mxPoint x="210" y="270" />
              <mxPoint x="102" y="256" />
              <mxPoint x="172" y="266" />
            </Array>
            <mxPoint x="82" y="266" as="targetPoint" />
            <mxPoint as="offset" />
          </mxGeometry>
        </mxCell>
        <mxCell id="iUJLf3TSjN7Vn4HQ9fXl-1" value="" style="shape=umlActor;verticalLabelPosition=bottom;verticalAlign=top;html=1;outlineConnect=0;fillColor=#f8cecc;strokeColor=#b85450;" parent="1" vertex="1">
          <mxGeometry x="57" y="66" width="30" height="60" as="geometry" />
        </mxCell>
        <mxCell id="iUJLf3TSjN7Vn4HQ9fXl-2" value="" style="shape=image;html=1;verticalAlign=top;verticalLabelPosition=bottom;labelBackgroundColor=#ffffff;imageAspect=0;aspect=fixed;image=https://cdn4.iconfinder.com/data/icons/essential-app-2/16/record-round-circle-dot-128.png" parent="1" vertex="1">
          <mxGeometry x="62" y="440" width="20" height="20" as="geometry" />
        </mxCell>
        <mxCell id="iUJLf3TSjN7Vn4HQ9fXl-3" value="" style="shape=image;html=1;verticalAlign=top;verticalLabelPosition=bottom;labelBackgroundColor=#ffffff;imageAspect=0;aspect=fixed;image=https://cdn4.iconfinder.com/data/icons/essential-app-2/16/record-round-circle-dot-128.png" parent="1" vertex="1">
          <mxGeometry x="242" y="440" width="20" height="20" as="geometry" />
        </mxCell>
        <mxCell id="iUJLf3TSjN7Vn4HQ9fXl-5" value="Vælg(våben)" style="html=1;verticalAlign=bottom;endArrow=block;edgeStyle=elbowEdgeStyle;elbow=vertical;curved=0;rounded=0;" parent="1" source="aM9ryv3xv72pqoxQDRHE-2" target="aM9ryv3xv72pqoxQDRHE-6" edge="1">
          <mxGeometry relative="1" as="geometry">
            <mxPoint x="82" y="286" as="sourcePoint" />
            <Array as="points">
              <mxPoint x="210" y="290" />
              <mxPoint x="167" y="286" />
            </Array>
            <mxPoint x="242" y="286" as="targetPoint" />
          </mxGeometry>
        </mxCell>
        <mxCell id="iUJLf3TSjN7Vn4HQ9fXl-6" value="Vis(skytter)" style="html=1;verticalAlign=bottom;endArrow=block;edgeStyle=elbowEdgeStyle;elbow=vertical;curved=0;rounded=0;" parent="1" source="aM9ryv3xv72pqoxQDRHE-6" target="aM9ryv3xv72pqoxQDRHE-2" edge="1">
          <mxGeometry relative="1" as="geometry">
            <mxPoint x="242" y="316" as="sourcePoint" />
            <Array as="points">
              <mxPoint x="200" y="330" />
              <mxPoint x="97" y="316" />
              <mxPoint x="167" y="326" />
            </Array>
            <mxPoint x="92" y="316" as="targetPoint" />
          </mxGeometry>
        </mxCell>
        <mxCell id="iUJLf3TSjN7Vn4HQ9fXl-7" value="Vælg(skytte)" style="html=1;verticalAlign=bottom;endArrow=block;edgeStyle=elbowEdgeStyle;elbow=vertical;curved=0;rounded=0;" parent="1" source="aM9ryv3xv72pqoxQDRHE-2" target="aM9ryv3xv72pqoxQDRHE-6" edge="1">
          <mxGeometry relative="1" as="geometry">
            <mxPoint x="82" y="346" as="sourcePoint" />
            <Array as="points">
              <mxPoint x="210" y="350" />
              <mxPoint x="190" y="360" />
              <mxPoint x="170" y="350" />
              <mxPoint x="210" y="350" />
              <mxPoint x="172" y="346" />
            </Array>
            <mxPoint x="242" y="346" as="targetPoint" />
          </mxGeometry>
        </mxCell>
        <mxCell id="iUJLf3TSjN7Vn4HQ9fXl-8" value="Vis(bekræftelse)" style="html=1;verticalAlign=bottom;endArrow=block;edgeStyle=elbowEdgeStyle;elbow=vertical;curved=0;rounded=0;" parent="1" source="aM9ryv3xv72pqoxQDRHE-6" target="aM9ryv3xv72pqoxQDRHE-2" edge="1">
          <mxGeometry relative="1" as="geometry">
            <mxPoint x="242" y="376" as="sourcePoint" />
            <Array as="points">
              <mxPoint x="180" y="420" />
              <mxPoint x="210" y="390" />
              <mxPoint x="107" y="376" />
              <mxPoint x="177" y="386" />
            </Array>
            <mxPoint x="87" y="376" as="targetPoint" />
          </mxGeometry>
        </mxCell>
        <mxCell id="iUJLf3TSjN7Vn4HQ9fXl-10" value="Case &quot;Udlever våben&quot;" style="text;html=1;align=center;verticalAlign=middle;resizable=0;points=[];autosize=1;strokeColor=none;fillColor=none;" parent="1" vertex="1">
          <mxGeometry x="90" y="25" width="140" height="30" as="geometry" />
        </mxCell>
        <mxCell id="UgesfR2xenXDDsNArzjw-7" value="Forespørg(RFID-tag)" style="html=1;verticalAlign=bottom;endArrow=block;edgeStyle=elbowEdgeStyle;elbow=vertical;curved=0;rounded=0;" edge="1" parent="1" source="aM9ryv3xv72pqoxQDRHE-6" target="UgesfR2xenXDDsNArzjw-5">
          <mxGeometry relative="1" as="geometry">
            <mxPoint x="262" y="240" as="sourcePoint" />
            <Array as="points">
              <mxPoint x="347" y="240" />
            </Array>
            <mxPoint x="400" y="240" as="targetPoint" />
          </mxGeometry>
        </mxCell>
        <mxCell id="UgesfR2xenXDDsNArzjw-8" value="Svar(våben)" style="html=1;verticalAlign=bottom;endArrow=none;edgeStyle=elbowEdgeStyle;elbow=vertical;curved=0;rounded=0;startArrow=block;startFill=1;endFill=0;" edge="1" parent="1" source="aM9ryv3xv72pqoxQDRHE-6" target="UgesfR2xenXDDsNArzjw-5">
          <mxGeometry relative="1" as="geometry">
            <mxPoint x="272" y="260" as="sourcePoint" />
            <Array as="points">
              <mxPoint x="370" y="260" />
            </Array>
            <mxPoint x="410" y="260" as="targetPoint" />
          </mxGeometry>
        </mxCell>
        <mxCell id="UgesfR2xenXDDsNArzjw-10" value="Forespørg(våben)" style="html=1;verticalAlign=bottom;endArrow=block;edgeStyle=elbowEdgeStyle;elbow=vertical;curved=0;rounded=0;" edge="1" parent="1" source="aM9ryv3xv72pqoxQDRHE-6" target="UgesfR2xenXDDsNArzjw-12">
          <mxGeometry relative="1" as="geometry">
            <mxPoint x="262" y="300.64" as="sourcePoint" />
            <Array as="points">
              <mxPoint x="334" y="300.64" />
            </Array>
            <mxPoint x="407" y="300.64" as="targetPoint" />
          </mxGeometry>
        </mxCell>
        <mxCell id="UgesfR2xenXDDsNArzjw-20" value="Svar(skytter)" style="html=1;verticalAlign=bottom;endArrow=none;edgeStyle=elbowEdgeStyle;elbow=vertical;curved=0;rounded=0;startArrow=block;startFill=1;endFill=0;" edge="1" parent="1" source="aM9ryv3xv72pqoxQDRHE-6" target="UgesfR2xenXDDsNArzjw-12">
          <mxGeometry relative="1" as="geometry">
            <mxPoint x="302" y="320" as="sourcePoint" />
            <Array as="points">
              <mxPoint x="415" y="320" />
            </Array>
            <mxPoint x="465" y="320" as="targetPoint" />
          </mxGeometry>
        </mxCell>
        <mxCell id="UgesfR2xenXDDsNArzjw-21" value="Registrer(våben, skytte)" style="html=1;verticalAlign=bottom;endArrow=block;edgeStyle=elbowEdgeStyle;elbow=vertical;curved=0;rounded=0;" edge="1" parent="1" source="aM9ryv3xv72pqoxQDRHE-6" target="UgesfR2xenXDDsNArzjw-18">
          <mxGeometry relative="1" as="geometry">
            <mxPoint x="330" y="371.6" as="sourcePoint" />
            <Array as="points">
              <mxPoint x="380" y="360" />
              <mxPoint x="463" y="371.6" />
              <mxPoint x="443" y="381.6" />
              <mxPoint x="423" y="371.6" />
              <mxPoint x="463" y="371.6" />
              <mxPoint x="425" y="367.6" />
            </Array>
            <mxPoint x="500" y="371.6" as="targetPoint" />
          </mxGeometry>
        </mxCell>
        <mxCell id="UgesfR2xenXDDsNArzjw-23" value="Send(ny-status)" style="html=1;verticalAlign=bottom;endArrow=block;edgeStyle=elbowEdgeStyle;elbow=vertical;curved=0;rounded=0;" edge="1" parent="1" source="aM9ryv3xv72pqoxQDRHE-6" target="UgesfR2xenXDDsNArzjw-14">
          <mxGeometry relative="1" as="geometry">
            <mxPoint x="262" y="380" as="sourcePoint" />
            <Array as="points">
              <mxPoint x="320" y="400" />
              <mxPoint x="352" y="380" />
            </Array>
            <mxPoint x="410" y="380" as="targetPoint" />
          </mxGeometry>
        </mxCell>
        <mxCell id="UgesfR2xenXDDsNArzjw-29" value="Send(bekræftelse)" style="html=1;verticalAlign=bottom;endArrow=none;edgeStyle=elbowEdgeStyle;elbow=vertical;curved=0;rounded=0;startArrow=block;startFill=1;endFill=0;" edge="1" parent="1" source="aM9ryv3xv72pqoxQDRHE-6" target="UgesfR2xenXDDsNArzjw-18">
          <mxGeometry relative="1" as="geometry">
            <mxPoint x="330" y="380" as="sourcePoint" />
            <Array as="points">
              <mxPoint x="488" y="380" />
            </Array>
            <mxPoint x="578" y="380" as="targetPoint" />
          </mxGeometry>
        </mxCell>
        <mxCell id="UgesfR2xenXDDsNArzjw-30" value="" style="group" vertex="1" connectable="0" parent="1">
          <mxGeometry x="375" y="166" width="100" height="294" as="geometry" />
        </mxCell>
        <mxCell id="UgesfR2xenXDDsNArzjw-4" value=":Våben" style="shape=umlLifeline;perimeter=lifelinePerimeter;whiteSpace=wrap;html=1;container=0;dropTarget=0;collapsible=0;recursiveResize=0;outlineConnect=0;portConstraint=eastwest;newEdgeStyle={&quot;edgeStyle&quot;:&quot;elbowEdgeStyle&quot;,&quot;elbow&quot;:&quot;vertical&quot;,&quot;curved&quot;:0,&quot;rounded&quot;:0};fillColor=#dae8fc;strokeColor=#6c8ebf;" vertex="1" parent="UgesfR2xenXDDsNArzjw-30">
          <mxGeometry width="100" height="284" as="geometry" />
        </mxCell>
        <mxCell id="UgesfR2xenXDDsNArzjw-5" value="" style="html=1;points=[];perimeter=orthogonalPerimeter;outlineConnect=0;targetShapes=umlLifeline;portConstraint=eastwest;newEdgeStyle={&quot;edgeStyle&quot;:&quot;elbowEdgeStyle&quot;,&quot;elbow&quot;:&quot;vertical&quot;,&quot;curved&quot;:0,&quot;rounded&quot;:0};fillColor=#f8cecc;strokeColor=#b85450;" vertex="1" parent="UgesfR2xenXDDsNArzjw-4">
          <mxGeometry x="45" y="70" width="10" height="30" as="geometry" />
        </mxCell>
        <mxCell id="UgesfR2xenXDDsNArzjw-25" style="edgeStyle=elbowEdgeStyle;rounded=0;orthogonalLoop=1;jettySize=auto;html=1;elbow=vertical;curved=0;" edge="1" parent="UgesfR2xenXDDsNArzjw-4" source="UgesfR2xenXDDsNArzjw-14" target="UgesfR2xenXDDsNArzjw-14">
          <mxGeometry relative="1" as="geometry">
            <mxPoint x="95" y="244" as="targetPoint" />
            <Array as="points">
              <mxPoint x="75" y="244" />
            </Array>
          </mxGeometry>
        </mxCell>
        <mxCell id="UgesfR2xenXDDsNArzjw-26" value="Opdater(status)" style="edgeLabel;html=1;align=center;verticalAlign=middle;resizable=0;points=[];" vertex="1" connectable="0" parent="UgesfR2xenXDDsNArzjw-25">
          <mxGeometry x="0.0397" y="1" relative="1" as="geometry">
            <mxPoint x="39" y="-12" as="offset" />
          </mxGeometry>
        </mxCell>
        <mxCell id="UgesfR2xenXDDsNArzjw-14" value="" style="html=1;points=[];perimeter=orthogonalPerimeter;outlineConnect=0;targetShapes=umlLifeline;portConstraint=eastwest;newEdgeStyle={&quot;edgeStyle&quot;:&quot;elbowEdgeStyle&quot;,&quot;elbow&quot;:&quot;vertical&quot;,&quot;curved&quot;:0,&quot;rounded&quot;:0};fillColor=#f8cecc;strokeColor=#b85450;" vertex="1" parent="UgesfR2xenXDDsNArzjw-4">
          <mxGeometry x="45" y="230" width="10" height="30" as="geometry" />
        </mxCell>
        <mxCell id="UgesfR2xenXDDsNArzjw-6" value="" style="shape=image;html=1;verticalAlign=top;verticalLabelPosition=bottom;labelBackgroundColor=#ffffff;imageAspect=0;aspect=fixed;image=https://cdn4.iconfinder.com/data/icons/essential-app-2/16/record-round-circle-dot-128.png" vertex="1" parent="UgesfR2xenXDDsNArzjw-30">
          <mxGeometry x="40" y="274" width="20" height="20" as="geometry" />
        </mxCell>
        <mxCell id="UgesfR2xenXDDsNArzjw-17" value=":Udlånsregistrering" style="shape=umlLifeline;perimeter=lifelinePerimeter;whiteSpace=wrap;html=1;container=0;dropTarget=0;collapsible=0;recursiveResize=0;outlineConnect=0;portConstraint=eastwest;newEdgeStyle={&quot;edgeStyle&quot;:&quot;elbowEdgeStyle&quot;,&quot;elbow&quot;:&quot;vertical&quot;,&quot;curved&quot;:0,&quot;rounded&quot;:0};fillColor=#dae8fc;strokeColor=#6c8ebf;" vertex="1" parent="1">
          <mxGeometry x="540" y="290" width="100" height="130" as="geometry" />
        </mxCell>
        <mxCell id="UgesfR2xenXDDsNArzjw-18" value="" style="html=1;points=[];perimeter=orthogonalPerimeter;outlineConnect=0;targetShapes=umlLifeline;portConstraint=eastwest;newEdgeStyle={&quot;edgeStyle&quot;:&quot;elbowEdgeStyle&quot;,&quot;elbow&quot;:&quot;vertical&quot;,&quot;curved&quot;:0,&quot;rounded&quot;:0};fillColor=#f8cecc;strokeColor=#b85450;" vertex="1" parent="UgesfR2xenXDDsNArzjw-17">
          <mxGeometry x="45" y="70" width="10" height="30" as="geometry" />
        </mxCell>
        <mxCell id="UgesfR2xenXDDsNArzjw-19" value="" style="shape=image;html=1;verticalAlign=top;verticalLabelPosition=bottom;labelBackgroundColor=#ffffff;imageAspect=0;aspect=fixed;image=https://cdn4.iconfinder.com/data/icons/essential-app-2/16/record-round-circle-dot-128.png" vertex="1" parent="1">
          <mxGeometry x="580" y="410" width="20" height="20" as="geometry" />
        </mxCell>
        <mxCell id="UgesfR2xenXDDsNArzjw-11" value=":BrugereAfVåben" style="shape=umlLifeline;perimeter=lifelinePerimeter;whiteSpace=wrap;html=1;container=0;dropTarget=0;collapsible=0;recursiveResize=0;outlineConnect=0;portConstraint=eastwest;newEdgeStyle={&quot;edgeStyle&quot;:&quot;elbowEdgeStyle&quot;,&quot;elbow&quot;:&quot;vertical&quot;,&quot;curved&quot;:0,&quot;rounded&quot;:0};fillColor=#dae8fc;strokeColor=#6c8ebf;" vertex="1" parent="1">
          <mxGeometry x="460" y="230" width="100" height="110" as="geometry" />
        </mxCell>
        <mxCell id="UgesfR2xenXDDsNArzjw-12" value="" style="html=1;points=[];perimeter=orthogonalPerimeter;outlineConnect=0;targetShapes=umlLifeline;portConstraint=eastwest;newEdgeStyle={&quot;edgeStyle&quot;:&quot;elbowEdgeStyle&quot;,&quot;elbow&quot;:&quot;vertical&quot;,&quot;curved&quot;:0,&quot;rounded&quot;:0};fillColor=#f8cecc;strokeColor=#b85450;" vertex="1" parent="UgesfR2xenXDDsNArzjw-11">
          <mxGeometry x="45" y="70" width="10" height="30" as="geometry" />
        </mxCell>
        <mxCell id="UgesfR2xenXDDsNArzjw-13" value="" style="shape=image;html=1;verticalAlign=top;verticalLabelPosition=bottom;labelBackgroundColor=#ffffff;imageAspect=0;aspect=fixed;image=https://cdn4.iconfinder.com/data/icons/essential-app-2/16/record-round-circle-dot-128.png" vertex="1" parent="1">
          <mxGeometry x="500" y="335" width="20" height="20" as="geometry" />
        </mxCell>
      </root>
    </mxGraphModel>
  </diagram>
</mxfile>
